<?xml version="1.0" encoding="UTF-8" standalone="yes"?><svg xmlns="http://www.w3.org/2000/svg" xmlns:xlink="http://www.w3.org/1999/xlink" height="196px" style="width:322px;height:196px;" version="1.1" viewBox="0 0 322 196" width="322px"><defs><filter height="300%" id="f1" width="300%" x="-1" y="-1"><feGaussianBlur result="blurOut" stdDeviation="2.0"/><feColorMatrix in="blurOut" result="blurOut2" type="matrix" values="0 0 0 0 0 0 0 0 0 0 0 0 0 0 0 0 0 0 .4 0"/><feOffset dx="4.0" dy="4.0" in="blurOut2" result="blurOut3"/><feBlend in="SourceGraphic" in2="blurOut3" mode="normal"/></filter></defs><g><rect fill="#FEFECE" filter="url(#f1)" height="40" style="stroke: #A80036; stroke-width: 1.5;" width="103" x="13.5" y="8"/><ellipse cx="28.5" cy="24" fill="#A9DCDF" rx="11" ry="11" style="stroke: #A80036; stroke-width: 1.0;"/><path d="M30.6875,25.7656 L26.5469,25.7656 L26.125,26.7969 L26.5469,26.7969 Q27.1563,26.7969 27.4219,27.0313 Q27.6875,27.2656 27.6875,27.6563 Q27.6875,28.0313 27.4219,28.2656 Q27.1563,28.5 26.5469,28.5 L24.25,28.5 Q23.6406,28.5 23.3828,28.2656 Q23.125,28.0313 23.125,27.6406 Q23.125,27.2656 23.3984,27.0234 Q23.6719,26.7813 24.2969,26.7969 L26.9688,20.1406 L25.8594,20.1406 Q25.25,20.1406 24.9844,19.9063 Q24.7188,19.6719 24.7188,19.2813 Q24.7188,18.9063 24.9844,18.6719 Q25.25,18.4375 25.8594,18.4375 L29.5313,18.4375 L32.9219,26.7969 Q33.5156,26.7969 33.7031,26.9375 Q34.0938,27.2031 34.0938,27.6563 Q34.0938,28.0313 33.8359,28.2656 Q33.5781,28.5 32.9688,28.5 L30.6719,28.5 Q30.0625,28.5 29.7969,28.2656 Q29.5313,28.0313 29.5313,27.6406 Q29.5313,27.2656 29.7969,27.0313 Q30.0625,26.7969 30.6719,26.7969 L31.0938,26.7969 L30.6875,25.7656 Z M29.9688,24.0625 L28.6094,20.6875 L27.2344,24.0625 L29.9688,24.0625 Z "/><text fill="#000000" font-family="sans-serif" font-size="12" font-style="italic" lengthAdjust="spacingAndGlyphs" textLength="71" x="42.5" y="28.9102">Forager_PIM</text><line style="stroke: #A80036; stroke-width: 1.5;" x1="14.5" x2="115.5" y1="40" y2="40"/><rect fill="#FEFECE" filter="url(#f1)" height="53.8359" style="stroke: #A80036; stroke-width: 1.5;" width="118" x="6" y="133.5"/><ellipse cx="25.95" cy="149.5" fill="#ADD1B2" rx="11" ry="11" style="stroke: #A80036; stroke-width: 1.0;"/><path d="M28.7156,145.375 Q28.8719,145.1563 29.0594,145.0469 Q29.2469,144.9375 29.4656,144.9375 Q29.8406,144.9375 30.075,145.1953 Q30.3094,145.4531 30.3094,146.0625 L30.3094,147.5156 Q30.3094,148.125 30.075,148.3906 Q29.8406,148.6563 29.4656,148.6563 Q29.1219,148.6563 28.9188,148.4531 Q28.7156,148.2656 28.6063,147.75 Q28.5594,147.3906 28.3719,147.2031 Q28.0438,146.8281 27.4344,146.6094 Q26.825,146.3906 26.2,146.3906 Q25.4344,146.3906 24.8016,146.7188 Q24.1688,147.0469 23.6766,147.7969 Q23.1844,148.5469 23.1844,149.5781 L23.1844,150.6719 Q23.1844,151.9063 24.075,152.7266 Q24.9656,153.5469 26.5594,153.5469 Q27.4969,153.5469 28.1531,153.2969 Q28.5438,153.1406 28.9656,152.7031 Q29.2313,152.4375 29.3797,152.3594 Q29.5281,152.2813 29.7313,152.2813 Q30.0594,152.2813 30.3172,152.5391 Q30.575,152.7969 30.575,153.1406 Q30.575,153.4844 30.2313,153.8906 Q29.7313,154.4688 28.9344,154.7969 Q27.8563,155.25 26.5594,155.25 Q25.0438,155.25 23.8406,154.625 Q22.8563,154.125 22.1688,153.0547 Q21.4813,151.9844 21.4813,150.7031 L21.4813,149.5469 Q21.4813,148.2188 22.0984,147.0703 Q22.7156,145.9219 23.8094,145.3047 Q24.9031,144.6875 26.1375,144.6875 Q26.8719,144.6875 27.5203,144.8516 Q28.1688,145.0156 28.7156,145.375 Z "/><text fill="#000000" font-family="sans-serif" font-size="12" lengthAdjust="spacingAndGlyphs" textLength="75" x="41.05" y="154.4102">Forager_PSM</text><line style="stroke: #A80036; stroke-width: 1.5;" x1="7" x2="123" y1="165.5" y2="165.5"/><text fill="#000000" font-family="sans-serif" font-size="11" lengthAdjust="spacingAndGlyphs" text-decoration="underline" textLength="106" x="12" y="180.9189">isAbstract() : Boolean</text><line style="stroke: #000000; stroke-width: 1.0;" x1="12" x2="118" y1="182.9189" y2="182.9189"/><polygon fill="#FBFB77" filter="url(#f1)" points="159,126,159,185.0547,313,185.0547,313,136,303,126,159,126" style="stroke: #A80036; stroke-width: 1.0;"/><polygon fill="#FBFB77" points="159,126,159,151.5273,118,176.418,159,159.5273,159,185.0547,313,185.0547,313,136,303,126,159,126" style="stroke: #A80036; stroke-width: 1.0;"/><line style="stroke: #A80036; stroke-width: 1.0;" x1="303" x2="303" y1="126" y2="136"/><line style="stroke: #A80036; stroke-width: 1.0;" x1="313" x2="303" y1="136" y2="136"/><text fill="#000000" font-family="sans-serif" font-size="13" lengthAdjust="spacingAndGlyphs" textLength="49" x="165" y="144.4951">"testing"</text><text fill="#000000" font-family="sans-serif" font-size="13" lengthAdjust="spacingAndGlyphs" textLength="59" x="165" y="160.8467">isAbstract</text><text fill="#000000" font-family="sans-serif" font-size="13" lengthAdjust="spacingAndGlyphs" textLength="125" x="173" y="177.1982">^ self = Forager_PSM</text><path d="M65,48.256 C65,69.305 65,103.3463 65,128.2359 " fill="none" style="stroke: #A80036; stroke-width: 1.0; stroke-dasharray: 7.0,7.0;"/><polygon fill="#A80036" points="65,133.4001,69,124.4001,65,128.4001,61,124.4001,65,133.4001" style="stroke: #A80036; stroke-width: 1.0;"/><text fill="#000000" font-family="sans-serif" font-size="13" lengthAdjust="spacingAndGlyphs" textLength="82" x="66" y="92.4951">transformation</text><polygon fill="#000000" points="102.5,101.3516,105.5,107.3516,108.5,101.3516,102.5,101.3516" style="stroke: #000000; stroke-width: 1.0;"/></g></svg>