<?xml version="1.0" encoding="UTF-8" standalone="no"?><svg xmlns="http://www.w3.org/2000/svg" xmlns:xlink="http://www.w3.org/1999/xlink" contentScriptType="application/ecmascript" contentStyleType="text/css" height="524px" preserveAspectRatio="none" style="width:563px;height:524px;" version="1.1" viewBox="0 0 563 524" width="563px" zoomAndPan="magnify"><defs><filter height="300%" id="f7amgs6" width="300%" x="-1" y="-1"><feGaussianBlur result="blurOut" stdDeviation="2.0"/><feColorMatrix in="blurOut" result="blurOut2" type="matrix" values="0 0 0 0 0 0 0 0 0 0 0 0 0 0 0 0 0 0 .4 0"/><feOffset dx="4.0" dy="4.0" in="blurOut2" result="blurOut3"/><feBlend in="SourceGraphic" in2="blurOut3" mode="normal"/></filter></defs><g><!--class VegetationUnit_PIM--><rect fill="#FEFECE" filter="url(#f7amgs6)" height="61.8359" style="stroke: #A80036; stroke-width: 1.5;" width="139" x="10.5" y="8"/><ellipse cx="25.5" cy="24" fill="#ADD1B2" rx="11" ry="11" style="stroke: #A80036; stroke-width: 1.0;"/><path d="M28.2656,19.875 Q28.4219,19.6563 28.6094,19.5469 Q28.7969,19.4375 29.0156,19.4375 Q29.3906,19.4375 29.625,19.6953 Q29.8594,19.9531 29.8594,20.5625 L29.8594,22.0156 Q29.8594,22.625 29.625,22.8906 Q29.3906,23.1563 29.0156,23.1563 Q28.6719,23.1563 28.4688,22.9531 Q28.2656,22.7656 28.1563,22.25 Q28.1094,21.8906 27.9219,21.7031 Q27.5938,21.3281 26.9844,21.1094 Q26.375,20.8906 25.75,20.8906 Q24.9844,20.8906 24.3516,21.2188 Q23.7188,21.5469 23.2266,22.2969 Q22.7344,23.0469 22.7344,24.0781 L22.7344,25.1719 Q22.7344,26.4063 23.625,27.2266 Q24.5156,28.0469 26.1094,28.0469 Q27.0469,28.0469 27.7031,27.7969 Q28.0938,27.6406 28.5156,27.2031 Q28.7813,26.9375 28.9297,26.8594 Q29.0781,26.7813 29.2813,26.7813 Q29.6094,26.7813 29.8672,27.0391 Q30.125,27.2969 30.125,27.6406 Q30.125,27.9844 29.7813,28.3906 Q29.2813,28.9688 28.4844,29.2969 Q27.4063,29.75 26.1094,29.75 Q24.5938,29.75 23.3906,29.125 Q22.4063,28.625 21.7188,27.5547 Q21.0313,26.4844 21.0313,25.2031 L21.0313,24.0469 Q21.0313,22.7188 21.6484,21.5703 Q22.2656,20.4219 23.3594,19.8047 Q24.4531,19.1875 25.6875,19.1875 Q26.4219,19.1875 27.0703,19.3516 Q27.7188,19.5156 28.2656,19.875 Z "/><text fill="#000000" font-family="sans-serif" font-size="12" lengthAdjust="spacingAndGlyphs" textLength="107" x="39.5" y="28.9102">VegetationUnit_PIM</text><line style="stroke: #A80036; stroke-width: 1.5;" x1="11.5" x2="148.5" y1="40" y2="40"/><text fill="#000000" font-family="sans-serif" font-size="11" lengthAdjust="spacingAndGlyphs" textLength="126" x="16.5" y="55.4189">biomass : Integer = 0 «kg»</text><line style="stroke: #A80036; stroke-width: 1.5;" x1="11.5" x2="148.5" y1="61.8359" y2="61.8359"/><!--class VegetationUnit_PSM--><rect fill="#FEFECE" filter="url(#f7amgs6)" height="184.5234" style="stroke: #A80036; stroke-width: 1.5;" width="148" x="6" y="244.5"/><ellipse cx="22.8" cy="260.5" fill="#ADD1B2" rx="11" ry="11" style="stroke: #A80036; stroke-width: 1.0;"/><path d="M25.5656,256.375 Q25.7219,256.1563 25.9094,256.0469 Q26.0969,255.9375 26.3156,255.9375 Q26.6906,255.9375 26.925,256.1953 Q27.1594,256.4531 27.1594,257.0625 L27.1594,258.5156 Q27.1594,259.125 26.925,259.3906 Q26.6906,259.6563 26.3156,259.6563 Q25.9719,259.6563 25.7688,259.4531 Q25.5656,259.2656 25.4563,258.75 Q25.4094,258.3906 25.2219,258.2031 Q24.8938,257.8281 24.2844,257.6094 Q23.675,257.3906 23.05,257.3906 Q22.2844,257.3906 21.6516,257.7188 Q21.0188,258.0469 20.5266,258.7969 Q20.0344,259.5469 20.0344,260.5781 L20.0344,261.6719 Q20.0344,262.9063 20.925,263.7266 Q21.8156,264.5469 23.4094,264.5469 Q24.3469,264.5469 25.0031,264.2969 Q25.3938,264.1406 25.8156,263.7031 Q26.0813,263.4375 26.2297,263.3594 Q26.3781,263.2813 26.5813,263.2813 Q26.9094,263.2813 27.1672,263.5391 Q27.425,263.7969 27.425,264.1406 Q27.425,264.4844 27.0813,264.8906 Q26.5813,265.4688 25.7844,265.7969 Q24.7063,266.25 23.4094,266.25 Q21.8938,266.25 20.6906,265.625 Q19.7063,265.125 19.0188,264.0547 Q18.3313,262.9844 18.3313,261.7031 L18.3313,260.5469 Q18.3313,259.2188 18.9484,258.0703 Q19.5656,256.9219 20.6594,256.3047 Q21.7531,255.6875 22.9875,255.6875 Q23.7219,255.6875 24.3703,255.8516 Q25.0188,256.0156 25.5656,256.375 Z "/><text fill="#000000" font-family="sans-serif" font-size="12" lengthAdjust="spacingAndGlyphs" textLength="112" x="37.2" y="265.4102">VegetationUnit_PSM</text><line style="stroke: #A80036; stroke-width: 1.5;" x1="7" x2="153" y1="276.5" y2="276.5"/><text fill="#000000" font-family="sans-serif" font-size="11" lengthAdjust="spacingAndGlyphs" textLength="44" x="12" y="291.9189">-biomass</text><line style="stroke: #A80036; stroke-width: 1.5;" x1="7" x2="153" y1="298.3359" y2="298.3359"/><text fill="#000000" font-family="sans-serif" font-size="11" lengthAdjust="spacingAndGlyphs" textLength="90" x="12" y="331.5908">biomass() : Integer</text><text fill="#000000" font-family="sans-serif" font-size="11" lengthAdjust="spacingAndGlyphs" textLength="136" x="12" y="345.4268">biomass:(aNumber : Integer)</text><line style="stroke: #A80036; stroke-width: 1.0;" x1="7" x2="55" y1="313.2539" y2="313.2539"/><text fill="#000000" font-family="sans-serif" font-size="11" lengthAdjust="spacingAndGlyphs" textLength="50" x="55" y="317.2549">accessing</text><line style="stroke: #A80036; stroke-width: 1.0;" x1="105" x2="153" y1="313.2539" y2="313.2539"/><text fill="#000000" font-family="sans-serif" font-size="11" lengthAdjust="spacingAndGlyphs" text-decoration="underline" textLength="108" x="12" y="377.0986">biomass_type(): Class</text><line style="stroke: #000000; stroke-width: 1.0;" x1="12" x2="120" y1="379.0986" y2="379.0986"/><text fill="#000000" font-family="sans-serif" font-size="11" lengthAdjust="spacingAndGlyphs" text-decoration="underline" textLength="105" x="12" y="390.9346">biomass_unit(): String</text><line style="stroke: #000000; stroke-width: 1.0;" x1="12" x2="117" y1="392.9346" y2="392.9346"/><line style="stroke: #A80036; stroke-width: 1.0;" x1="7" x2="41" y1="358.7617" y2="358.7617"/><text fill="#000000" font-family="sans-serif" font-size="11" lengthAdjust="spacingAndGlyphs" textLength="78" x="41" y="362.7627">+ parameter unit</text><line style="stroke: #A80036; stroke-width: 1.0;" x1="119" x2="153" y1="358.7617" y2="358.7617"/><text fill="#000000" font-family="sans-serif" font-size="11" lengthAdjust="spacingAndGlyphs" text-decoration="underline" textLength="126" x="12" y="422.6064">biomass_default(): Integer</text><line style="stroke: #000000; stroke-width: 1.0;" x1="12" x2="138" y1="424.6064" y2="424.6064"/><line style="stroke: #A80036; stroke-width: 1.0;" x1="7" x2="45.5" y1="404.2695" y2="404.2695"/><text fill="#000000" font-family="sans-serif" font-size="11" lengthAdjust="spacingAndGlyphs" textLength="69" x="45.5" y="408.2705">- default value</text><line style="stroke: #A80036; stroke-width: 1.0;" x1="114.5" x2="153" y1="404.2695" y2="404.2695"/><polygon fill="#FBFB77" filter="url(#f7amgs6)" points="189.5,148,189.5,207.0547,401.5,207.0547,401.5,158,391.5,148,189.5,148" style="stroke: #A80036; stroke-width: 1.0;"/><polygon fill="#FBFB77" points="189.5,148,189.5,173.5273,102,327.0898,189.5,181.5273,189.5,207.0547,401.5,207.0547,401.5,158,391.5,148,189.5,148" style="stroke: #A80036; stroke-width: 1.0;"/><line style="stroke: #A80036; stroke-width: 1.0;" x1="391.5" x2="391.5" y1="148" y2="158"/><line style="stroke: #A80036; stroke-width: 1.0;" x1="401.5" x2="391.5" y1="158" y2="158"/><text fill="#000000" font-family="sans-serif" font-size="13" lengthAdjust="spacingAndGlyphs" textLength="69" x="195.5" y="166.4951">"accessing"</text><text fill="#000000" font-family="sans-serif" font-size="13" lengthAdjust="spacingAndGlyphs" textLength="49" x="195.5" y="182.8467">biomass</text><text fill="#000000" font-family="sans-serif" font-size="13" lengthAdjust="spacingAndGlyphs" textLength="183" x="203.5" y="199.1982">^ biomass ifNil: [ biomass := 0 ]</text><polygon fill="#FBFB77" filter="url(#f7amgs6)" points="189.5,217.0547,189.5,308.8125,554.5,308.8125,554.5,227.0547,544.5,217.0547,189.5,217.0547" style="stroke: #A80036; stroke-width: 1.0;"/><polygon fill="#FBFB77" points="189.5,217.0547,189.5,258.9336,148,340.9258,189.5,266.9336,189.5,308.8125,554.5,308.8125,554.5,227.0547,544.5,217.0547,189.5,217.0547" style="stroke: #A80036; stroke-width: 1.0;"/><line style="stroke: #A80036; stroke-width: 1.0;" x1="544.5" x2="544.5" y1="217.0547" y2="227.0547"/><line style="stroke: #A80036; stroke-width: 1.0;" x1="554.5" x2="544.5" y1="227.0547" y2="227.0547"/><text fill="#000000" font-family="sans-serif" font-size="13" lengthAdjust="spacingAndGlyphs" textLength="69" x="195.5" y="235.5498">"accessing"</text><text fill="#000000" font-family="sans-serif" font-size="13" lengthAdjust="spacingAndGlyphs" textLength="110" x="195.5" y="251.9014">biomass: anInteger</text><text fill="#000000" font-family="sans-serif" font-size="13" lengthAdjust="spacingAndGlyphs" textLength="312" x="227.5" y="268.2529">biomass = anInteger ifTrue: [ ^ self ]. "for optimization"</text><text fill="#000000" font-family="sans-serif" font-size="13" lengthAdjust="spacingAndGlyphs" textLength="126" x="227.5" y="284.6045">biomass := anInteger.</text><text fill="#000000" font-family="sans-serif" font-size="13" lengthAdjust="spacingAndGlyphs" textLength="73" x="227.5" y="300.9561">self changed</text><polygon fill="#FBFB77" filter="url(#f7amgs6)" points="189.5,318.8125,189.5,377.8672,319.5,377.8672,319.5,328.8125,309.5,318.8125,189.5,318.8125" style="stroke: #A80036; stroke-width: 1.0;"/><polygon fill="#FBFB77" points="189.5,318.8125,189.5,344.3398,120,372.5977,189.5,352.3398,189.5,377.8672,319.5,377.8672,319.5,328.8125,309.5,318.8125,189.5,318.8125" style="stroke: #A80036; stroke-width: 1.0;"/><line style="stroke: #A80036; stroke-width: 1.0;" x1="309.5" x2="309.5" y1="318.8125" y2="328.8125"/><line style="stroke: #A80036; stroke-width: 1.0;" x1="319.5" x2="309.5" y1="328.8125" y2="328.8125"/><text fill="#000000" font-family="sans-serif" font-size="13" lengthAdjust="spacingAndGlyphs" textLength="109" x="195.5" y="337.3076">" + parameter unit"</text><text fill="#000000" font-family="sans-serif" font-size="13" lengthAdjust="spacingAndGlyphs" textLength="81" x="195.5" y="353.6592">biomass_type</text><text fill="#000000" font-family="sans-serif" font-size="13" lengthAdjust="spacingAndGlyphs" textLength="48" x="227.5" y="370.0107">^ Integer</text><polygon fill="#FBFB77" filter="url(#f7amgs6)" points="189.5,387.8672,189.5,446.9219,319.5,446.9219,319.5,397.8672,309.5,387.8672,189.5,387.8672" style="stroke: #A80036; stroke-width: 1.0;"/><polygon fill="#FBFB77" points="189.5,387.8672,189.5,413.3945,117,386.4336,189.5,421.3945,189.5,446.9219,319.5,446.9219,319.5,397.8672,309.5,387.8672,189.5,387.8672" style="stroke: #A80036; stroke-width: 1.0;"/><line style="stroke: #A80036; stroke-width: 1.0;" x1="309.5" x2="309.5" y1="387.8672" y2="397.8672"/><line style="stroke: #A80036; stroke-width: 1.0;" x1="319.5" x2="309.5" y1="397.8672" y2="397.8672"/><text fill="#000000" font-family="sans-serif" font-size="13" lengthAdjust="spacingAndGlyphs" textLength="109" x="195.5" y="406.3623">" + parameter unit"</text><text fill="#000000" font-family="sans-serif" font-size="13" lengthAdjust="spacingAndGlyphs" textLength="77" x="195.5" y="422.7139">biomass_unit</text><text fill="#000000" font-family="sans-serif" font-size="13" lengthAdjust="spacingAndGlyphs" textLength="27" x="227.5" y="439.0654">^ 'kg'</text><polygon fill="#FBFB77" filter="url(#f7amgs6)" points="189.5,456.9219,189.5,515.9766,304.5,515.9766,304.5,466.9219,294.5,456.9219,189.5,456.9219" style="stroke: #A80036; stroke-width: 1.0;"/><polygon fill="#FBFB77" points="189.5,456.9219,189.5,482.4492,138,418.1055,189.5,490.4492,189.5,515.9766,304.5,515.9766,304.5,466.9219,294.5,456.9219,189.5,456.9219" style="stroke: #A80036; stroke-width: 1.0;"/><line style="stroke: #A80036; stroke-width: 1.0;" x1="294.5" x2="294.5" y1="456.9219" y2="466.9219"/><line style="stroke: #A80036; stroke-width: 1.0;" x1="304.5" x2="294.5" y1="466.9219" y2="466.9219"/><text fill="#000000" font-family="sans-serif" font-size="13" lengthAdjust="spacingAndGlyphs" textLength="93" x="195.5" y="475.417">" - default value"</text><text fill="#000000" font-family="sans-serif" font-size="13" lengthAdjust="spacingAndGlyphs" textLength="94" x="195.5" y="491.7686">biomass_default</text><text fill="#000000" font-family="sans-serif" font-size="13" lengthAdjust="spacingAndGlyphs" textLength="16" x="227.5" y="508.1201">^ 0</text><path d="M80,70.011 C80,109.388 80,180.386 80,239.131 " fill="none" style="stroke: #A80036; stroke-width: 1.0; stroke-dasharray: 7.0,7.0;"/><polygon fill="#A80036" points="80,244.415,84,235.415,80,239.415,76,235.415,80,244.415" style="stroke: #A80036; stroke-width: 1.0;"/><text fill="#000000" font-family="sans-serif" font-size="13" lengthAdjust="spacingAndGlyphs" textLength="82" x="81" y="114.4951">transformation</text><polygon fill="#000000" points="117.5,123.3516,120.5,129.3516,123.5,123.3516,117.5,123.3516" style="stroke: #000000; stroke-width: 1.0;"/></g></svg>