<?xml version="1.0" encoding="UTF-8" standalone="no"?><svg xmlns="http://www.w3.org/2000/svg" xmlns:xlink="http://www.w3.org/1999/xlink" contentScriptType="application/ecmascript" contentStyleType="text/css" height="495px" preserveAspectRatio="none" style="width:636px;height:495px;" version="1.1" viewBox="0 0 636 495" width="636px" zoomAndPan="magnify"><defs><filter height="300%" id="fueo8rc" width="300%" x="-1" y="-1"><feGaussianBlur result="blurOut" stdDeviation="2.0"/><feColorMatrix in="blurOut" result="blurOut2" type="matrix" values="0 0 0 0 0 0 0 0 0 0 0 0 0 0 0 0 0 0 .4 0"/><feOffset dx="4.0" dy="4.0" in="blurOut2" result="blurOut3"/><feBlend in="SourceGraphic" in2="blurOut3" mode="normal"/></filter></defs><g><!--class Person_PIM--><rect fill="#FEFECE" filter="url(#fueo8rc)" height="61.8359" style="stroke: #A80036; stroke-width: 1.5;" width="233" x="6" y="8"/><ellipse cx="84.75" cy="24" fill="#ADD1B2" rx="11" ry="11" style="stroke: #A80036; stroke-width: 1.0;"/><path d="M87.5156,19.875 Q87.6719,19.6563 87.8594,19.5469 Q88.0469,19.4375 88.2656,19.4375 Q88.6406,19.4375 88.875,19.6953 Q89.1094,19.9531 89.1094,20.5625 L89.1094,22.0156 Q89.1094,22.625 88.875,22.8906 Q88.6406,23.1563 88.2656,23.1563 Q87.9219,23.1563 87.7188,22.9531 Q87.5156,22.7656 87.4063,22.25 Q87.3594,21.8906 87.1719,21.7031 Q86.8438,21.3281 86.2344,21.1094 Q85.625,20.8906 85,20.8906 Q84.2344,20.8906 83.6016,21.2188 Q82.9688,21.5469 82.4766,22.2969 Q81.9844,23.0469 81.9844,24.0781 L81.9844,25.1719 Q81.9844,26.4063 82.875,27.2266 Q83.7656,28.0469 85.3594,28.0469 Q86.2969,28.0469 86.9531,27.7969 Q87.3438,27.6406 87.7656,27.2031 Q88.0313,26.9375 88.1797,26.8594 Q88.3281,26.7813 88.5313,26.7813 Q88.8594,26.7813 89.1172,27.0391 Q89.375,27.2969 89.375,27.6406 Q89.375,27.9844 89.0313,28.3906 Q88.5313,28.9688 87.7344,29.2969 Q86.6563,29.75 85.3594,29.75 Q83.8438,29.75 82.6406,29.125 Q81.6563,28.625 80.9688,27.5547 Q80.2813,26.4844 80.2813,25.2031 L80.2813,24.0469 Q80.2813,22.7188 80.8984,21.5703 Q81.5156,20.4219 82.6094,19.8047 Q83.7031,19.1875 84.9375,19.1875 Q85.6719,19.1875 86.3203,19.3516 Q86.9688,19.5156 87.5156,19.875 Z "/><text fill="#000000" font-family="sans-serif" font-size="12" lengthAdjust="spacingAndGlyphs" textLength="67" x="105.25" y="28.9102">Person_PIM</text><line style="stroke: #A80036; stroke-width: 1.5;" x1="7" x2="238" y1="40" y2="40"/><text fill="#000000" font-family="sans-serif" font-size="11" lengthAdjust="spacingAndGlyphs" textLength="221" x="12" y="55.4189">contacts : Contact[*] = OrderedCollection new</text><line style="stroke: #A80036; stroke-width: 1.5;" x1="7" x2="238" y1="61.8359" y2="61.8359"/><!--class Person_PSM--><rect fill="#FEFECE" filter="url(#fueo8rc)" height="216.1953" style="stroke: #A80036; stroke-width: 1.5;" width="185" x="30" y="214.5"/><ellipse cx="82.25" cy="230.5" fill="#ADD1B2" rx="11" ry="11" style="stroke: #A80036; stroke-width: 1.0;"/><path d="M85.0156,226.375 Q85.1719,226.1563 85.3594,226.0469 Q85.5469,225.9375 85.7656,225.9375 Q86.1406,225.9375 86.375,226.1953 Q86.6094,226.4531 86.6094,227.0625 L86.6094,228.5156 Q86.6094,229.125 86.375,229.3906 Q86.1406,229.6563 85.7656,229.6563 Q85.4219,229.6563 85.2188,229.4531 Q85.0156,229.2656 84.9063,228.75 Q84.8594,228.3906 84.6719,228.2031 Q84.3438,227.8281 83.7344,227.6094 Q83.125,227.3906 82.5,227.3906 Q81.7344,227.3906 81.1016,227.7188 Q80.4688,228.0469 79.9766,228.7969 Q79.4844,229.5469 79.4844,230.5781 L79.4844,231.6719 Q79.4844,232.9063 80.375,233.7266 Q81.2656,234.5469 82.8594,234.5469 Q83.7969,234.5469 84.4531,234.2969 Q84.8438,234.1406 85.2656,233.7031 Q85.5313,233.4375 85.6797,233.3594 Q85.8281,233.2813 86.0313,233.2813 Q86.3594,233.2813 86.6172,233.5391 Q86.875,233.7969 86.875,234.1406 Q86.875,234.4844 86.5313,234.8906 Q86.0313,235.4688 85.2344,235.7969 Q84.1563,236.25 82.8594,236.25 Q81.3438,236.25 80.1406,235.625 Q79.1563,235.125 78.4688,234.0547 Q77.7813,232.9844 77.7813,231.7031 L77.7813,230.5469 Q77.7813,229.2188 78.3984,228.0703 Q79.0156,226.9219 80.1094,226.3047 Q81.2031,225.6875 82.4375,225.6875 Q83.1719,225.6875 83.8203,225.8516 Q84.4688,226.0156 85.0156,226.375 Z "/><text fill="#000000" font-family="sans-serif" font-size="12" lengthAdjust="spacingAndGlyphs" textLength="72" x="102.75" y="235.4102">Person_PSM</text><line style="stroke: #A80036; stroke-width: 1.5;" x1="31" x2="214" y1="246.5" y2="246.5"/><text fill="#000000" font-family="sans-serif" font-size="11" lengthAdjust="spacingAndGlyphs" textLength="46" x="36" y="261.9189">-contacts</text><line style="stroke: #A80036; stroke-width: 1.5;" x1="31" x2="214" y1="268.3359" y2="268.3359"/><text fill="#000000" font-family="sans-serif" font-size="11" lengthAdjust="spacingAndGlyphs" textLength="106" x="36" y="301.5908">contacts() : Contact[*]</text><text fill="#000000" font-family="sans-serif" font-size="11" lengthAdjust="spacingAndGlyphs" textLength="161" x="36" y="315.4268">contacts:(aCollection : Contact[*])</text><line style="stroke: #A80036; stroke-width: 1.0;" x1="31" x2="97.5" y1="283.2539" y2="283.2539"/><text fill="#000000" font-family="sans-serif" font-size="11" lengthAdjust="spacingAndGlyphs" textLength="50" x="97.5" y="287.2549">accessing</text><line style="stroke: #A80036; stroke-width: 1.0;" x1="147.5" x2="214" y1="283.2539" y2="283.2539"/><text fill="#000000" font-family="sans-serif" font-size="11" lengthAdjust="spacingAndGlyphs" textLength="155" x="36" y="347.0986">addContact:(aContact : Contact)</text><text fill="#000000" font-family="sans-serif" font-size="11" lengthAdjust="spacingAndGlyphs" textLength="173" x="36" y="360.9346">removeContact:(aContact : Contact)</text><line style="stroke: #A80036; stroke-width: 1.0;" x1="31" x2="83" y1="328.7617" y2="328.7617"/><text fill="#000000" font-family="sans-serif" font-size="11" lengthAdjust="spacingAndGlyphs" textLength="79" x="83" y="332.7627">adding/removing</text><line style="stroke: #A80036; stroke-width: 1.0;" x1="162" x2="214" y1="328.7617" y2="328.7617"/><text fill="#000000" font-family="sans-serif" font-size="11" lengthAdjust="spacingAndGlyphs" text-decoration="underline" textLength="113" x="36" y="392.6064">contacts_type() : Class</text><line style="stroke: #000000; stroke-width: 1.0;" x1="36" x2="149" y1="394.6064" y2="394.6064"/><line style="stroke: #A80036; stroke-width: 1.0;" x1="31" x2="83.5" y1="374.2695" y2="374.2695"/><text fill="#000000" font-family="sans-serif" font-size="11" lengthAdjust="spacingAndGlyphs" textLength="78" x="83.5" y="378.2705">+ parameter unit</text><line style="stroke: #A80036; stroke-width: 1.0;" x1="161.5" x2="214" y1="374.2695" y2="374.2695"/><text fill="#000000" font-family="sans-serif" font-size="11" lengthAdjust="spacingAndGlyphs" text-decoration="underline" textLength="129" x="36" y="424.2783">contacts_default() : Object</text><line style="stroke: #000000; stroke-width: 1.0;" x1="36" x2="165" y1="426.2783" y2="426.2783"/><line style="stroke: #A80036; stroke-width: 1.0;" x1="31" x2="88" y1="405.9414" y2="405.9414"/><text fill="#000000" font-family="sans-serif" font-size="11" lengthAdjust="spacingAndGlyphs" textLength="69" x="88" y="409.9424">- default value</text><line style="stroke: #A80036; stroke-width: 1.0;" x1="157" x2="214" y1="405.9414" y2="405.9414"/><polygon fill="#FBFB77" filter="url(#fueo8rc)" points="250,148,250,190.7031,611,190.7031,611,158,601,148,250,148" style="stroke: #A80036; stroke-width: 1.0;"/><polygon fill="#FBFB77" points="250,148,250,165.3516,142,297.0898,250,173.3516,250,190.7031,611,190.7031,611,158,601,148,250,148" style="stroke: #A80036; stroke-width: 1.0;"/><line style="stroke: #A80036; stroke-width: 1.0;" x1="601" x2="601" y1="148" y2="158"/><line style="stroke: #A80036; stroke-width: 1.0;" x1="611" x2="601" y1="158" y2="158"/><text fill="#000000" font-family="sans-serif" font-size="13" lengthAdjust="spacingAndGlyphs" textLength="50" x="256" y="166.4951">contacts</text><text fill="#000000" font-family="sans-serif" font-size="13" lengthAdjust="spacingAndGlyphs" textLength="308" x="288" y="182.8467">^ contacts ifNil: [ contacts := OrderedCollection new ]</text><polygon fill="#FBFB77" filter="url(#fueo8rc)" points="250,200.7031,250,276.1094,627,276.1094,627,210.7031,617,200.7031,250,200.7031" style="stroke: #A80036; stroke-width: 1.0;"/><polygon fill="#FBFB77" points="250,200.7031,250,234.4063,197,310.9258,250,242.4063,250,276.1094,627,276.1094,627,210.7031,617,200.7031,250,200.7031" style="stroke: #A80036; stroke-width: 1.0;"/><line style="stroke: #A80036; stroke-width: 1.0;" x1="617" x2="617" y1="200.7031" y2="210.7031"/><line style="stroke: #A80036; stroke-width: 1.0;" x1="627" x2="617" y1="210.7031" y2="210.7031"/><text fill="#000000" font-family="sans-serif" font-size="13" lengthAdjust="spacingAndGlyphs" textLength="122" x="256" y="219.1982">contacts: aCollection</text><text fill="#000000" font-family="sans-serif" font-size="13" lengthAdjust="spacingAndGlyphs" textLength="324" x="288" y="235.5498">contacts = aCollection ifTrue: [ ^ self ]. "for optimization"</text><text fill="#000000" font-family="sans-serif" font-size="13" lengthAdjust="spacingAndGlyphs" textLength="138" x="288" y="251.9014">contacts := aCollection.</text><text fill="#000000" font-family="sans-serif" font-size="13" lengthAdjust="spacingAndGlyphs" textLength="73" x="288" y="268.2529">self changed</text><polygon fill="#FBFB77" filter="url(#fueo8rc)" points="250,286.1094,250,328.8125,462,328.8125,462,296.1094,452,286.1094,250,286.1094" style="stroke: #A80036; stroke-width: 1.0;"/><polygon fill="#FBFB77" points="250,286.1094,250,303.4609,191,342.5977,250,311.4609,250,328.8125,462,328.8125,462,296.1094,452,286.1094,250,286.1094" style="stroke: #A80036; stroke-width: 1.0;"/><line style="stroke: #A80036; stroke-width: 1.0;" x1="452" x2="452" y1="286.1094" y2="296.1094"/><line style="stroke: #A80036; stroke-width: 1.0;" x1="462" x2="452" y1="296.1094" y2="296.1094"/><text fill="#000000" font-family="sans-serif" font-size="13" lengthAdjust="spacingAndGlyphs" textLength="126" x="256" y="304.6045">addContact: aContact</text><text fill="#000000" font-family="sans-serif" font-size="13" lengthAdjust="spacingAndGlyphs" textLength="159" x="288" y="320.9561">self contacts add: aContact</text><polygon fill="#FBFB77" filter="url(#fueo8rc)" points="250,338.8125,250,381.5156,482,381.5156,482,348.8125,472,338.8125,250,338.8125" style="stroke: #A80036; stroke-width: 1.0;"/><polygon fill="#FBFB77" points="250,338.8125,250,356.1641,209,356.4336,250,364.1641,250,381.5156,482,381.5156,482,348.8125,472,338.8125,250,338.8125" style="stroke: #A80036; stroke-width: 1.0;"/><line style="stroke: #A80036; stroke-width: 1.0;" x1="472" x2="472" y1="338.8125" y2="348.8125"/><line style="stroke: #A80036; stroke-width: 1.0;" x1="482" x2="472" y1="348.8125" y2="348.8125"/><text fill="#000000" font-family="sans-serif" font-size="13" lengthAdjust="spacingAndGlyphs" textLength="146" x="256" y="357.3076">removeContact: aContact</text><text fill="#000000" font-family="sans-serif" font-size="13" lengthAdjust="spacingAndGlyphs" textLength="179" x="288" y="373.6592">self contacts remove: aContact</text><polygon fill="#FBFB77" filter="url(#fueo8rc)" points="250,391.5156,250,434.2188,357,434.2188,357,401.5156,347,391.5156,250,391.5156" style="stroke: #A80036; stroke-width: 1.0;"/><polygon fill="#FBFB77" points="250,391.5156,250,408.8672,149,388.1055,250,416.8672,250,434.2188,357,434.2188,357,401.5156,347,391.5156,250,391.5156" style="stroke: #A80036; stroke-width: 1.0;"/><line style="stroke: #A80036; stroke-width: 1.0;" x1="347" x2="347" y1="391.5156" y2="401.5156"/><line style="stroke: #A80036; stroke-width: 1.0;" x1="357" x2="347" y1="401.5156" y2="401.5156"/><text fill="#000000" font-family="sans-serif" font-size="13" lengthAdjust="spacingAndGlyphs" textLength="82" x="256" y="410.0107">contacts_type</text><text fill="#000000" font-family="sans-serif" font-size="13" lengthAdjust="spacingAndGlyphs" textLength="54" x="288" y="426.3623">^ Contact</text><polygon fill="#FBFB77" filter="url(#fueo8rc)" points="250,444.2188,250,486.9219,442,486.9219,442,454.2188,432,444.2188,250,444.2188" style="stroke: #A80036; stroke-width: 1.0;"/><polygon fill="#FBFB77" points="250,444.2188,250,461.5703,165,419.7773,250,469.5703,250,486.9219,442,486.9219,442,454.2188,432,444.2188,250,444.2188" style="stroke: #A80036; stroke-width: 1.0;"/><line style="stroke: #A80036; stroke-width: 1.0;" x1="432" x2="432" y1="444.2188" y2="454.2188"/><line style="stroke: #A80036; stroke-width: 1.0;" x1="442" x2="432" y1="454.2188" y2="454.2188"/><text fill="#000000" font-family="sans-serif" font-size="13" lengthAdjust="spacingAndGlyphs" textLength="95" x="256" y="462.7139">contacts_default</text><text fill="#000000" font-family="sans-serif" font-size="13" lengthAdjust="spacingAndGlyphs" textLength="139" x="288" y="479.0654">^ OrderedCollection new</text><path d="M122.5,70.125 C122.5,103.378 122.5,158.886 122.5,209.294 " fill="none" style="stroke: #A80036; stroke-width: 1.0; stroke-dasharray: 7.0,7.0;"/><polygon fill="#A80036" points="122.5,214.468,126.5,205.468,122.5,209.468,118.5,205.468,122.5,214.468" style="stroke: #A80036; stroke-width: 1.0;"/><text fill="#000000" font-family="sans-serif" font-size="13" lengthAdjust="spacingAndGlyphs" textLength="82" x="123.5" y="114.4951">transformation</text><polygon fill="#000000" points="160,123.3516,163,129.3516,166,123.3516,160,123.3516" style="stroke: #000000; stroke-width: 1.0;"/></g></svg>