<?xml version="1.0" encoding="UTF-8" standalone="yes"?><svg xmlns="http://www.w3.org/2000/svg" xmlns:xlink="http://www.w3.org/1999/xlink" height="258px" style="width:330px;height:258px;" version="1.1" viewBox="0 0 330 258" width="330px"><defs><filter height="300%" id="f1" width="300%" x="-1" y="-1"><feGaussianBlur result="blurOut" stdDeviation="2.0"/><feColorMatrix in="blurOut" result="blurOut2" type="matrix" values="0 0 0 0 0 0 0 0 0 0 0 0 0 0 0 0 0 0 .4 0"/><feOffset dx="4.0" dy="4.0" in="blurOut2" result="blurOut3"/><feBlend in="SourceGraphic" in2="blurOut3" mode="normal"/></filter></defs><g><rect fill="#FEFECE" filter="url(#f1)" height="67.6719" style="stroke: #A80036; stroke-width: 1.5;" width="102" x="8.5" y="8"/><ellipse cx="23.5" cy="24" fill="#ADD1B2" rx="11" ry="11" style="stroke: #A80036; stroke-width: 1.0;"/><path d="M26.2656,19.875 Q26.4219,19.6563 26.6094,19.5469 Q26.7969,19.4375 27.0156,19.4375 Q27.3906,19.4375 27.625,19.6953 Q27.8594,19.9531 27.8594,20.5625 L27.8594,22.0156 Q27.8594,22.625 27.625,22.8906 Q27.3906,23.1563 27.0156,23.1563 Q26.6719,23.1563 26.4688,22.9531 Q26.2656,22.7656 26.1563,22.25 Q26.1094,21.8906 25.9219,21.7031 Q25.5938,21.3281 24.9844,21.1094 Q24.375,20.8906 23.75,20.8906 Q22.9844,20.8906 22.3516,21.2188 Q21.7188,21.5469 21.2266,22.2969 Q20.7344,23.0469 20.7344,24.0781 L20.7344,25.1719 Q20.7344,26.4063 21.625,27.2266 Q22.5156,28.0469 24.1094,28.0469 Q25.0469,28.0469 25.7031,27.7969 Q26.0938,27.6406 26.5156,27.2031 Q26.7813,26.9375 26.9297,26.8594 Q27.0781,26.7813 27.2813,26.7813 Q27.6094,26.7813 27.8672,27.0391 Q28.125,27.2969 28.125,27.6406 Q28.125,27.9844 27.7813,28.3906 Q27.2813,28.9688 26.4844,29.2969 Q25.4063,29.75 24.1094,29.75 Q22.5938,29.75 21.3906,29.125 Q20.4063,28.625 19.7188,27.5547 Q19.0313,26.4844 19.0313,25.2031 L19.0313,24.0469 Q19.0313,22.7188 19.6484,21.5703 Q20.2656,20.4219 21.3594,19.8047 Q22.4531,19.1875 23.6875,19.1875 Q24.4219,19.1875 25.0703,19.3516 Q25.7188,19.5156 26.2656,19.875 Z "/><text fill="#000000" font-family="sans-serif" font-size="12" lengthAdjust="spacingAndGlyphs" textLength="70" x="37.5" y="28.9102">Forager_PIM</text><line style="stroke: #A80036; stroke-width: 1.5;" x1="9.5" x2="109.5" y1="40" y2="40"/><text fill="#000000" font-family="sans-serif" font-size="11" lengthAdjust="spacingAndGlyphs" textLength="78" x="14.5" y="55.4189">customMethod()</text><text fill="#000000" font-family="sans-serif" font-size="11" lengthAdjust="spacingAndGlyphs" textLength="32" x="14.5" y="69.2549">/step()</text><rect fill="#FEFECE" filter="url(#f1)" height="67.6719" style="stroke: #A80036; stroke-width: 1.5;" width="107" x="6" y="172.5"/><ellipse cx="21" cy="188.5" fill="#ADD1B2" rx="11" ry="11" style="stroke: #A80036; stroke-width: 1.0;"/><path d="M23.7656,184.375 Q23.9219,184.1563 24.1094,184.0469 Q24.2969,183.9375 24.5156,183.9375 Q24.8906,183.9375 25.125,184.1953 Q25.3594,184.4531 25.3594,185.0625 L25.3594,186.5156 Q25.3594,187.125 25.125,187.3906 Q24.8906,187.6563 24.5156,187.6563 Q24.1719,187.6563 23.9688,187.4531 Q23.7656,187.2656 23.6563,186.75 Q23.6094,186.3906 23.4219,186.2031 Q23.0938,185.8281 22.4844,185.6094 Q21.875,185.3906 21.25,185.3906 Q20.4844,185.3906 19.8516,185.7188 Q19.2188,186.0469 18.7266,186.7969 Q18.2344,187.5469 18.2344,188.5781 L18.2344,189.6719 Q18.2344,190.9063 19.125,191.7266 Q20.0156,192.5469 21.6094,192.5469 Q22.5469,192.5469 23.2031,192.2969 Q23.5938,192.1406 24.0156,191.7031 Q24.2813,191.4375 24.4297,191.3594 Q24.5781,191.2813 24.7813,191.2813 Q25.1094,191.2813 25.3672,191.5391 Q25.625,191.7969 25.625,192.1406 Q25.625,192.4844 25.2813,192.8906 Q24.7813,193.4688 23.9844,193.7969 Q22.9063,194.25 21.6094,194.25 Q20.0938,194.25 18.8906,193.625 Q17.9063,193.125 17.2188,192.0547 Q16.5313,190.9844 16.5313,189.7031 L16.5313,188.5469 Q16.5313,187.2188 17.1484,186.0703 Q17.7656,184.9219 18.8594,184.3047 Q19.9531,183.6875 21.1875,183.6875 Q21.9219,183.6875 22.5703,183.8516 Q23.2188,184.0156 23.7656,184.375 Z "/><text fill="#000000" font-family="sans-serif" font-size="12" lengthAdjust="spacingAndGlyphs" textLength="75" x="35" y="193.4102">Forager_PSM</text><line style="stroke: #A80036; stroke-width: 1.5;" x1="7" x2="112" y1="204.5" y2="204.5"/><text fill="#000000" font-family="sans-serif" font-size="11" lengthAdjust="spacingAndGlyphs" textLength="78" x="12" y="219.9189">customMethod()</text><text fill="#000000" font-family="sans-serif" font-size="11" lengthAdjust="spacingAndGlyphs" textLength="32" x="12" y="233.7549">/step()</text><polygon fill="#FBFB77" filter="url(#f1)" points="148,154,148,196.7031,321,196.7031,321,164,311,154,148,154" style="stroke: #A80036; stroke-width: 1.0;"/><polygon fill="#FBFB77" points="148,154,148,171.3516,90,215.418,148,179.3516,148,196.7031,321,196.7031,321,164,311,154,148,154" style="stroke: #A80036; stroke-width: 1.0;"/><line style="stroke: #A80036; stroke-width: 1.0;" x1="311" x2="311" y1="154" y2="164"/><line style="stroke: #A80036; stroke-width: 1.0;" x1="321" x2="311" y1="164" y2="164"/><text fill="#000000" font-family="sans-serif" font-size="13" lengthAdjust="spacingAndGlyphs" textLength="118" x="154" y="172.4951">"as yet unclassified"</text><text fill="#000000" font-family="sans-serif" font-size="13" lengthAdjust="spacingAndGlyphs" textLength="152" x="154" y="188.8467">self shouldBeImplemented</text><polygon fill="#FBFB77" filter="url(#f1)" points="148,206.7031,148,249.4063,321,249.4063,321,216.7031,311,206.7031,148,206.7031" style="stroke: #A80036; stroke-width: 1.0;"/><polygon fill="#FBFB77" points="148,206.7031,148,224.0547,44,229.2539,148,232.0547,148,249.4063,321,249.4063,321,216.7031,311,206.7031,148,206.7031" style="stroke: #A80036; stroke-width: 1.0;"/><line style="stroke: #A80036; stroke-width: 1.0;" x1="311" x2="311" y1="206.7031" y2="216.7031"/><line style="stroke: #A80036; stroke-width: 1.0;" x1="321" x2="311" y1="216.7031" y2="216.7031"/><text fill="#000000" font-family="sans-serif" font-size="13" lengthAdjust="spacingAndGlyphs" textLength="49" x="154" y="225.1982">"control"</text><text fill="#000000" font-family="sans-serif" font-size="13" lengthAdjust="spacingAndGlyphs" textLength="152" x="154" y="241.5498">self shouldBeImplemented</text><path d="M59.5,76.276 C59.5,102.675 59.5,139.601 59.5,167.2233 " fill="none" style="stroke: #A80036; stroke-width: 1.0; stroke-dasharray: 7.0,7.0;"/><polygon fill="#A80036" points="59.5,172.2681,63.5,163.2681,59.5,167.2681,55.5,163.2681,59.5,172.2681" style="stroke: #A80036; stroke-width: 1.0;"/><text fill="#000000" font-family="sans-serif" font-size="13" lengthAdjust="spacingAndGlyphs" textLength="82" x="60.5" y="120.4951">transformation</text><polygon fill="#000000" points="97,129.3516,100,135.3516,103,129.3516,97,129.3516" style="stroke: #000000; stroke-width: 1.0;"/></g></svg>